PathFileType	4	(X/Y/Z)	/Users/itak/Documents/Research/Walk-IL/dataset/trc/00538_00009.trc
DataRate	CameraRate	NumFrames	NumMarkers	Units	OrigDataRate	OrigDataStartFrame	OrigNumFrames
100.000000	100.000000	4	55	mm	100.000000	84	676
Frame#	Time	RPSI			LPSI			L3			STRN			T10			C7			CLAV			RBAK			LBAK			LSHO			LUPA			LAEL			LAOL			LWTS			LWPS			LFRA			LIFD			LHPS			LHTS			RSHO			RUPA			RAEL			RAOL			RWTS			RWPS			RFRA			RIFD			RHTS			RHPS			RBHD			LFHD			RFHD			LBHD			LHIP			RHIP			RASI			LASI			LKNE			LTHI			LANK			LTIP			LTOE			LMT1			LMT5			LHEE			RKNE			RTHI			RANK			RTIP			RTOE			RMT5			RHEE			RMT1			*53			*54			
		X1	Y1	Z1	X2	Y2	Z2	X3	Y3	Z3	X4	Y4	Z4	X5	Y5	Z5	X6	Y6	Z6	X7	Y7	Z7	X8	Y8	Z8	X9	Y9	Z9	X10	Y10	Z10	X11	Y11	Z11	X12	Y12	Z12	X13	Y13	Z13	X14	Y14	Z14	X15	Y15	Z15	X16	Y16	Z16	X17	Y17	Z17	X18	Y18	Z18	X19	Y19	Z19	X20	Y20	Z20	X21	Y21	Z21	X22	Y22	Z22	X23	Y23	Z23	X24	Y24	Z24	X25	Y25	Z25	X26	Y26	Z26	X27	Y27	Z27	X28	Y28	Z28	X29	Y29	Z29	X30	Y30	Z30	X31	Y31	Z31	X32	Y32	Z32	X33	Y33	Z33	X34	Y34	Z34	X35	Y35	Z35	X36	Y36	Z36	X37	Y37	Z37	X38	Y38	Z38	X39	Y39	Z39	X40	Y40	Z40	X41	Y41	Z41	X42	Y42	Z42	X43	Y43	Z43	X44	Y44	Z44	X45	Y45	Z45	X46	Y46	Z46	X47	Y47	Z47	X48	Y48	Z48	X49	Y49	Z49	X50	Y50	Z50	X51	Y51	Z51	X52	Y52	Z52	X53	Y53	Z53	X54	Y54	Z54	X55	Y55	Z55	

85	0.84	-707.8202514648438	1020.315124511719	494.8697204589844	-698.7454833984375	1022.755310058594	361.8003234863281	-698.502685546875	1111.23193359375	425.0340881347656	-471.1825866699219	1297.730346679688	424.9776000976562	-713.728759765625	1236.029663085938	424.4787292480469	-667.6077880859375	1509.290771484375	436.4666748046875	-492.4010620117188	1408.724365234375	425.3908081054688	-737.3247680664062	1385.3056640625	525.7488403320312	-700.0367431640625	1456.281982421875	343.6075744628906	-600.5151977539062	1480.914306640625	262.7637939453125	-607.7183227539062	1354.774780273438	181.3634643554688	-582.7162475585938	1132.435546875	161.7306823730469	-672.7061157226562	1123.579833984375	207.5748443603516	-490.2432250976562	890.8507690429688	214.4749145507812	-532.3539428710938	866.7384033203125	141.1481323242188	-558.9962768554688	1046.078857421875	156.9285430908203	-489.6476440429688	719.4003295898438	209.8813934326172	-522.7860717773438	807.0661010742188	150.436279296875	-472.7532348632812	813.3933715820312	196.2159118652344	-605.0200805664062	1471.52294921875	591.2024536132812	-621.3727416992188	1406.900756835938	660.0704956054688	-623.3297729492188	1116.586303710938	705.9286499023438	-676.0125122070312	1098.503295898438	681.0504760742188	-491.4888000488281	895.2903442382812	661.6414184570312	-533.3258056640625	875.6184692382812	730.0982055664062	-611.572998046875	1060.584716796875	712.274658203125	-480.9547424316406	721.8237915039062	666.1629638671875	-462.2414245605469	803.5655517578125	676.40576171875	-515.1265869140625	801.8953857421875	728.3428955078125	-602.900390625	1687.9091796875	495.9923400878906	-437.8904724121094	1716.446655273438	372.6863098144531	-465.5198974609375	1713.848388671875	514.1071166992188	-563.7640380859375	1689.9453125	334.769287109375	-565.7689819335938	939.9383544921875	238.2535705566406	-592.1823120117188	944.3085327148438	621.9954833984375	-502.0176086425781	972.3600463867188	568.8062133789062	-491.0099182128906	962.9743041992188	292.7914733886719	-559.1119384765625	493.4549255371094	306.7254943847656	-550.7233276367188	657.9221801757812	265.2867126464844	-643.9710083007812	33.17758941650391	321.4630737304688	-626.3927612304688	250.3628082275391	305.2575378417969	-432.1974487304688	39.84550476074219	373.6708984375	-503.1061706542969	41.52109146118164	411.3636474609375	-521.1982421875	35.07011032104492	304.9319763183594	-711.4664306640625	35.32698822021484	379.25927734375	-576.9208374023438	498.0570678710938	575.4879760742188	-557.90283203125	787.8997802734375	621.6561889648438	-657.0342407226562	37.95638275146484	554.0491333007812	-578.7586669921875	356.2747802734375	562.3534545898438	-434.4598083496094	40.02627944946289	525.90087890625	-524.6419677734375	38.92249298095703	581.1100463867188	-709.3241577148438	30.66606712341309	495.5628051757812	-496.3283996582031	39.95536422729492	480.8068237304688	nan	nan	nan	nan	nan	nan	
86	0.85	-707.8377075195312	1020.355285644531	494.4848937988281	-698.7396850585938	1022.796691894531	361.4373168945312	-698.475341796875	1111.244750976562	424.6341552734375	-471.1814575195312	1297.736328125	424.7017211914062	-713.696044921875	1236.05859375	424.1124572753906	-667.5632934570312	1509.292236328125	436.0649719238281	-492.3409729003906	1408.723510742188	425.0677490234375	-737.2405395507812	1385.327026367188	525.3012084960938	-700.0040283203125	1456.291137695312	343.196533203125	-600.4672241210938	1480.926025390625	262.4301452636719	-607.5382690429688	1354.768920898438	181.0002288818359	-582.48779296875	1132.455810546875	161.3353118896484	-672.5180053710938	1123.544555664062	207.1203002929688	-490.017333984375	890.854736328125	214.0798492431641	-532.0995483398438	866.758056640625	140.7257232666016	-558.76513671875	1046.08642578125	156.5372009277344	-489.3424377441406	719.4968872070312	209.4808807373047	-522.527587890625	807.1300659179688	150.0292816162109	-472.4354248046875	813.4210205078125	195.814697265625	-605.1243286132812	1471.52685546875	590.8486328125	-621.4343872070312	1406.938598632812	659.6988525390625	-623.2845458984375	1116.625122070312	705.5623779296875	-676.1073608398438	1098.487548828125	680.6343383789062	-491.3543395996094	895.3566284179688	661.3365478515625	-533.266845703125	875.677978515625	729.8046264648438	-611.5436401367188	1060.618896484375	711.913818359375	-480.7681579589844	721.8980712890625	665.8546142578125	-461.9964599609375	803.7373657226562	676.219970703125	-515.007080078125	801.9885864257812	728.0289306640625	-602.88623046875	1687.914794921875	495.5751953125	-437.9090270996094	1716.4248046875	372.3716735839844	-465.5231323242188	1713.848510742188	513.8236694335938	-563.71728515625	1689.94140625	334.38623046875	-565.74560546875	939.8988647460938	237.9100952148438	-592.199951171875	944.344970703125	621.6439208984375	-502.1958312988281	972.3517456054688	568.5825805664062	-491.0674438476562	962.9096069335938	292.6054992675781	-559.0650024414062	493.4488830566406	306.5834655761719	-550.7317504882812	657.9202880859375	265.0910949707031	-643.9749145507812	33.16959762573242	321.4618835449219	-626.3129272460938	250.3680725097656	305.1251831054688	-432.203857421875	39.85467910766602	373.6714477539062	-503.1057739257812	41.52568817138672	411.3605346679688	-521.2006225585938	35.0683708190918	304.9367370605469	-711.4755249023438	35.31502151489258	379.2489013671875	-576.9771118164062	498.097412109375	575.36083984375	-557.9503173828125	787.9090576171875	621.3671875	-657.0389404296875	37.94115829467773	554.0640258789062	-578.7569580078125	356.3074035644531	562.2573852539062	-434.4607238769531	40.02667236328125	525.9024658203125	-524.6412963867188	38.92697525024414	581.1087036132812	-709.3311767578125	30.66890907287598	495.5574035644531	-496.3273010253906	39.95040130615234	480.8042297363281	nan	nan	nan	nan	nan	nan	
87	0.86	-707.8468627929688	1020.393432617188	494.0898742675781	-698.7334594726562	1022.840393066406	361.0806884765625	-698.443359375	1111.255249023438	424.2394409179688	-471.1963500976562	1297.740600585938	424.427001953125	-713.6840209960938	1236.08447265625	423.7586364746094	-667.5260620117188	1509.290161132812	435.6535949707031	-492.2767028808594	1408.72119140625	424.7397155761719	-737.1690673828125	1385.339721679688	524.864013671875	-699.9752807617188	1456.293212890625	342.8017578125	-600.4157104492188	1480.929321289062	262.0914306640625	-607.3652954101562	1354.765747070312	180.6247406005859	-582.2433471679688	1132.478881835938	160.9453735351562	-672.3450927734375	1123.520874023438	206.6692352294922	-489.7974243164062	890.85400390625	213.6855163574219	-531.8336181640625	866.7814331054688	140.2962951660156	-558.5077514648438	1046.088989257812	156.1344604492188	-489.0563659667969	719.5823974609375	209.0805358886719	-522.2633666992188	807.1904296875	149.6030120849609	-472.1009826660156	813.4561157226562	195.3751678466797	-605.2227783203125	1471.537963867188	590.49072265625	-621.5172729492188	1406.973999023438	659.3239135742188	-623.2294921875	1116.664794921875	705.181884765625	-676.26611328125	1098.47900390625	680.1340942382812	-491.2227172851562	895.4183349609375	661.0309448242188	-533.2037963867188	875.7437133789062	729.5066528320312	-611.5208129882812	1060.659912109375	711.5577392578125	-480.5912780761719	721.981689453125	665.5531616210938	-461.74462890625	803.9365234375	676.0132446289062	-514.8854370117188	802.0768432617188	727.7164916992188	-602.8541259765625	1687.920776367188	495.1738891601562	-437.9178466796875	1716.408081054688	372.03955078125	-465.5211181640625	1713.849365234375	513.5096435546875	-563.6543579101562	1689.933227539062	333.9848937988281	-565.7374267578125	939.8759765625	237.5610198974609	-592.212158203125	944.373779296875	621.2828979492188	-502.368896484375	972.3333740234375	568.3400268554688	-491.0929260253906	962.8477172851562	292.4113464355469	-558.9889526367188	493.447265625	306.4258117675781	-550.7021484375	657.9189453125	264.8999328613281	-643.978515625	33.16360855102539	321.4620971679688	-626.228759765625	250.3728637695312	304.9910278320312	-432.2080688476562	39.86378479003906	373.6737976074219	-503.1043395996094	41.52840805053711	411.3594055175781	-521.2012939453125	35.06713104248047	304.9455871582031	-711.484375	35.30574035644531	379.2391967773438	-577.030517578125	498.138671875	575.2279663085938	-558.02783203125	787.9244384765625	621.0863647460938	-657.0430908203125	37.93009185791016	554.0745239257812	-578.767578125	356.3351745605469	562.1573486328125	-434.4617919921875	40.02668762207031	525.9037475585938	-524.6401977539062	38.93195724487305	581.1071166992188	-709.3392333984375	30.67188262939453	495.5507507324219	-496.3269653320312	39.94516372680664	480.8030395507812	nan	nan	nan	nan	nan	nan	
88	0.87	-707.8509521484375	1020.4306640625	493.6912536621094	-698.7234497070312	1022.883178710938	360.7306518554688	-698.4010009765625	1111.260498046875	423.8497314453125	-471.2188720703125	1297.743774414062	424.1484985351562	-713.6841430664062	1236.104370117188	423.4058532714844	-667.5003662109375	1509.285034179688	435.2338562011719	-492.2167663574219	1408.720458984375	424.4011840820312	-737.1212768554688	1385.3427734375	524.4423217773438	-699.9486083984375	1456.286865234375	342.4201049804688	-600.357177734375	1480.922607421875	261.7417297363281	-607.20703125	1354.764038085938	180.2359466552734	-581.9920654296875	1132.504272460938	160.5575714111328	-672.1785888671875	1123.51025390625	206.2146606445312	-489.5739440917969	890.856689453125	213.2880249023438	-531.5548095703125	866.8084716796875	139.8610992431641	-558.2301635742188	1046.087280273438	155.7196655273438	-488.7873229980469	719.6524658203125	208.6696014404297	-521.9888916015625	807.2454223632812	149.1613006591797	-471.7706604003906	813.49267578125	194.9108276367188	-605.3057250976562	1471.554077148438	590.1273193359375	-621.6189575195312	1407.005981445312	658.9469604492188	-623.1746215820312	1116.704956054688	704.7927856445312	-676.4610595703125	1098.484619140625	679.5737915039062	-491.1019897460938	895.4744262695312	660.7257080078125	-533.1382446289062	875.8154296875	729.2057495117188	-611.506591796875	1060.708129882812	711.210205078125	-480.4252624511719	722.0758666992188	665.2597045898438	-461.4938354492188	804.1419677734375	675.7871704101562	-514.7643432617188	802.1608276367188	727.4113159179688	-602.8040161132812	1687.928833007812	494.7912902832031	-437.9112854003906	1716.39697265625	371.6891784667969	-465.5149536132812	1713.849487304688	513.1549072265625	-563.580810546875	1689.9228515625	333.5700988769531	-565.7296752929688	939.858642578125	237.2102661132812	-592.2228393554688	944.39404296875	620.9150390625	-502.5257263183594	972.3070678710938	568.0797119140625	-491.0843505859375	962.7909545898438	292.1994018554688	-558.8887939453125	493.4466857910156	306.2504272460938	-550.628173828125	657.91845703125	264.7073974609375	-643.9812622070312	33.15958786010742	321.4629821777344	-626.149658203125	250.3720855712891	304.859375	-432.2101135253906	39.87191772460938	373.6784973144531	-503.1018981933594	41.52955627441406	411.3605041503906	-521.2007446289062	35.06675338745117	304.9574279785156	-711.4912719726562	35.29893112182617	379.230224609375	-577.0796508789062	498.179931640625	575.0847778320312	-558.137451171875	787.9522094726562	620.8167114257812	-657.046875	37.92348098754883	554.0804443359375	-578.790771484375	356.3572387695312	562.0497436523438	-434.4632568359375	40.02636337280273	525.9047241210938	-524.6386108398438	38.93724822998047	581.1058349609375	-709.3458862304688	30.67335510253906	495.5426330566406	-496.328369140625	39.93990325927734	480.8036804199219	nan	nan	nan	nan	nan	nan	
